<?xml version="1.0" encoding="utf-8"?>
<!-- Generator: Adobe Illustrator 17.0.0, SVG Export Plug-In . SVG Version: 6.00 Build 0)  -->
<!DOCTYPE svg PUBLIC "-//W3C//DTD SVG 1.1//EN" "http://www.w3.org/Graphics/SVG/1.1/DTD/svg11.dtd">
<svg version="1.1" id="Layer_1" xmlns="http://www.w3.org/2000/svg" xmlns:xlink="http://www.w3.org/1999/xlink" x="0px" y="0px"
	 width="40px" height="40px" viewBox="-8 -8 40 40" enable-background="new -8 -8 40 40" xml:space="preserve">
<g>
	<g>
		<path fill="#4C53C8" d="M28.875,20.259H-4.875c-0.62,0-1.125,0.54-1.125,1.202v5.133c0,0.635,0.506,1.154,1.125,1.154h33.749
			c0.621,0,1.125-0.519,1.125-1.155v-5.131C30,20.799,29.496,20.259,28.875,20.259z M28.875,8.256H-4.875
			C-5.494,8.256-6,8.796-6,9.458v5.133c0,0.636,0.506,1.154,1.125,1.154h33.749c0.621,0,1.125-0.518,1.125-1.154V9.458
			C30,8.796,29.496,8.256,28.875,8.256z M28.875-3.747H-4.875C-5.494-3.747-6-3.207-6-2.545v5.131C-6,3.221-5.494,3.74-4.875,3.74
			h33.749C29.496,3.74,30,3.221,30,2.586v-5.131C30-3.207,29.496-3.747,28.875-3.747z"/>
	</g>
</g>
</svg>
